<svg id="Layer_1" data-name="Layer 1" xmlns="http://www.w3.org/2000/svg" viewBox="0 0 291.59 358.59"><title>logo</title><polygon points="141.5 127.41 76.6 75.91 290.7 7.41 254.9 91.11 141.5 127.41" fill="none" stroke="#fff" stroke-miterlimit="10"/><polygon points="217.9 282.71 219.2 193.21 74.2 78.61 77.9 169.61 217.9 282.71" fill="none" stroke="#fff" stroke-miterlimit="10"/><polygon points="151.2 233.51 215.6 285.61 0.9 352.21 37.4 268.81 151.2 233.51" fill="none" stroke="#fff" stroke-miterlimit="10"/><polygon id="_Path_" data-name="&lt;Path&gt;" points="272.3 323.11 274.3 227.81 233.8 250.61 233.3 297.11 233.3 297.11 272.3 323.11" fill="none" stroke="#fff" stroke-miterlimit="10"/><polygon id="_Path_2" data-name="&lt;Path&gt;" points="233.1 296.21 189.3 312.01 181.1 357.81 272.3 323.11 233.1 296.21" fill="none" stroke="#fff" stroke-miterlimit="10"/><polygon id="_Path_3" data-name="&lt;Path&gt;" points="17 39.51 19.1 134.81 58.6 110.21 57.1 63.71 57.1 63.71 17 39.51" fill="none" stroke="#fff" stroke-miterlimit="10"/><polygon id="_Path_4" data-name="&lt;Path&gt;" points="57.4 64.61 100.4 46.91 106.6 0.81 17 39.51 57.4 64.61" fill="none" stroke="#fff" stroke-miterlimit="10"/></svg>