# Blender v2.79 (sub 0) OBJ File: ''
# www.blender.org
mtllib untitled.mtl
o Cube.003
v -2.608191 6.709329 -0.489354
v -2.608191 6.709329 0.541573
v -2.618101 5.747988 -0.489354
v -2.618101 5.747988 0.541573
v -3.414871 7.241452 -0.489354
v -3.414871 7.241452 0.541573
v -3.453110 5.276402 -0.489354
v -3.453110 5.276402 0.541573
v -1.700315 7.019605 -0.489354
v -1.700315 7.019605 0.541573
v -2.606438 6.691397 -0.489354
v -2.606438 6.691397 0.541573
v -1.532100 7.964048 -0.489354
v -1.532100 7.964048 0.541573
v -3.414872 7.241720 -0.489354
v -3.414872 7.241720 0.541573
vn 0.9999 -0.0103 0.0000
vn 0.4918 -0.8707 0.0000
vn -0.9998 0.0195 0.0000
vn 0.5506 0.8347 0.0000
vn -0.0000 0.0000 -1.0000
vn 0.0000 -0.0000 1.0000
vn 0.3406 -0.9402 0.0000
vn -0.5627 -0.8266 0.0000
vn -0.3582 0.9336 0.0000
vn 0.9845 -0.1754 0.0000
usemtl None
s off
f 1//1 2//1 4//1 3//1
f 3//2 4//2 8//2 7//2
f 7//3 8//3 6//3 5//3
f 5//4 6//4 2//4 1//4
f 3//5 7//5 5//5 1//5
f 8//6 4//6 2//6 6//6
f 9//7 10//7 12//7 11//7
f 11//8 12//8 16//8 15//8
f 15//9 16//9 14//9 13//9
f 13//10 14//10 10//10 9//10
f 11//5 15//5 13//5 9//5
f 16//6 12//6 10//6 14//6
o Cube
v -3.065590 2.435697 -0.475211
v -3.903626 0.550930 -0.488019
v 0.622497 2.122848 -0.480694
v -0.717382 3.178082 -0.488019
v -3.065591 2.435696 0.641267
v -3.903625 0.550930 0.628459
v 0.622497 2.122848 0.635784
v -0.717382 3.178082 0.628459
vn -0.0013 0.0016 -1.0000
vn 0.0013 -0.0016 1.0000
vn -0.9137 0.4063 0.0000
vn 0.3281 -0.9447 -0.0000
vn 0.6187 0.7856 -0.0000
vn -0.3014 0.9535 0.0000
usemtl Material
s off
f 17//11 20//11 19//11 18//11
f 21//12 22//12 23//12 24//12
f 17//13 18//13 22//13 21//13
f 18//14 19//14 23//14 22//14
f 19//15 20//15 24//15 23//15
f 21//16 24//16 20//16 17//16
o Cube.001
v 1.457271 6.141261 -0.475211
v 2.307666 8.020484 -0.488019
v -2.228682 6.478320 -0.480694
v -0.895761 5.414310 -0.488019
v 1.457272 6.141261 0.641267
v 2.307665 8.020484 0.628459
v -2.228682 6.478320 0.635784
v -0.895761 5.414310 0.628459
vn 0.0013 -0.0016 -1.0000
vn -0.0013 0.0016 1.0000
vn 0.9111 -0.4123 0.0000
vn -0.3219 0.9468 -0.0000
vn -0.6239 -0.7815 0.0000
vn 0.2952 -0.9554 0.0000
usemtl Material.001
s off
f 25//17 28//17 27//17 26//17
f 29//18 30//18 31//18 32//18
f 25//19 26//19 30//19 29//19
f 26//20 27//20 31//20 30//20
f 27//21 28//21 32//21 31//21
f 29//22 32//22 28//22 25//22
o Cube.002
v -2.277616 6.406219 -0.475210
v -2.290414 4.549440 -0.488018
v 0.675313 2.196741 -0.480694
v 0.597562 4.065635 -0.488019
v -2.277617 6.406219 0.641268
v -2.290413 4.549439 0.628460
v 0.675313 2.196741 0.635784
v 0.597562 4.065635 0.628459
vn 0.0002 0.0015 -1.0000
vn -0.0002 -0.0015 1.0000
vn -1.0000 0.0069 0.0000
vn -0.6215 -0.7834 0.0000
vn 0.9991 0.0416 -0.0000
vn 0.6313 0.7755 0.0000
usemtl Material.002
s off
f 33//23 36//23 35//23 34//23
f 37//24 38//24 39//24 40//24
f 33//25 34//25 38//25 37//25
f 34//26 35//26 39//26 38//26
f 35//27 36//27 40//27 39//27
f 37//28 40//28 36//28 33//28
o Cube.004
v 1.042157 1.881801 -0.475194
v 1.042157 1.881801 0.555733
v 1.011507 2.842705 -0.475194
v 1.011507 2.842705 0.555734
v 1.870567 1.384181 -0.475194
v 1.870567 1.384181 0.555733
v 1.825879 3.349095 -0.475194
v 1.825879 3.349095 0.555734
v 0.148178 1.533504 -0.475194
v 0.148178 1.533504 0.555733
v 1.039650 1.899644 -0.475194
v 1.039650 1.899644 0.555733
v 0.019953 0.582806 -0.475194
v 0.019953 0.582806 0.555733
v 1.870579 1.383912 -0.475194
v 1.870579 1.383912 0.555733
vn -0.9995 -0.0319 0.0000
vn -0.5281 0.8492 0.0000
vn 0.9997 0.0227 0.0000
vn -0.5149 -0.8572 0.0000
vn -0.0000 0.0000 -1.0000
vn 0.0000 -0.0000 1.0000
vn -0.3799 0.9250 0.0000
vn 0.5273 0.8496 0.0000
vn 0.3973 -0.9177 0.0000
vn -0.9910 0.1337 0.0000
usemtl None
s off
f 41//29 42//29 44//29 43//29
f 43//30 44//30 48//30 47//30
f 47//31 48//31 46//31 45//31
f 45//32 46//32 42//32 41//32
f 43//33 47//33 45//33 41//33
f 48//34 44//34 42//34 46//34
f 49//35 50//35 52//35 51//35
f 51//36 52//36 56//36 55//36
f 55//37 56//37 54//37 53//37
f 53//38 54//38 50//38 49//38
f 51//33 55//33 53//33 49//33
f 56//34 52//34 50//34 54//34
